HIERARCHY
ROOT Hips
{
	OFFSET -0.179506 -22.333345 2.821913
	CHANNELS 6 Xposition Yposition Zposition Zrotation Yrotation Xrotation 
	JOINT LeftUpLeg
	{
		OFFSET 6.951974 -9.140623 -0.681533
		CHANNELS 3 Zrotation Yrotation Xrotation
		JOINT LeftLeg
		{
			OFFSET 3.427654 -37.519855 -0.449580
			CHANNELS 3 Zrotation Yrotation Xrotation
			JOINT LeftFoot
			{
				OFFSET -1.359570 -39.796059 -4.369333
				CHANNELS 3 Zrotation Yrotation Xrotation
				JOINT LeftToe
				{
					OFFSET 2.635814 -5.579078 11.928840
					CHANNELS 3 Zrotation Yrotation Xrotation
					End Site
					{
						OFFSET 0.000000 0.000000 0.000000
					}
				}
			}
		}
	}
	JOINT RightUpLeg
	{
		OFFSET -6.767048 -9.052170 -0.431982
		CHANNELS 3 Zrotation Yrotation Xrotation
		JOINT RightLeg
		{
			OFFSET -3.829005 -38.256897 -0.885003
			CHANNELS 3 Zrotation Yrotation Xrotation
			JOINT RightFoot
			{
				OFFSET 1.577377 -39.841461 -4.231180
				CHANNELS 3 Zrotation Yrotation Xrotation
				JOINT RightToe
				{
					OFFSET -2.537174 -4.814398 12.334795
					CHANNELS 3 Zrotation Yrotation Xrotation
					End Site
					{
						OFFSET 0.000000 0.000000 0.000000
					}
				}
			}
		}
	}
	JOINT Spine
	{
		OFFSET -0.253288 10.896323 -2.669631
		CHANNELS 3 Zrotation Yrotation Xrotation
		JOINT Spine1
		{
			OFFSET 0.548704 13.518043 0.109247
			CHANNELS 3 Zrotation Yrotation Xrotation
			JOINT Spine2
			{
				OFFSET 0.145701 5.292222 2.542457
				CHANNELS 3 Zrotation Yrotation Xrotation
				JOINT Neck
				{
					OFFSET -0.277840 21.387037 -4.285703
					CHANNELS 3 Zrotation Yrotation Xrotation
					JOINT Head
					{
						OFFSET 0.515184 6.496960 5.134897
						CHANNELS 3 Zrotation Yrotation Xrotation
						End Site
						{
							OFFSET 0.000000 0.000000 0.000000
						}
					}
				}
				JOINT LeftShoulder
				{
					OFFSET 7.884473 12.174932 -3.408961
					CHANNELS 3 Zrotation Yrotation Xrotation
					JOINT LeftArm
					{
						OFFSET 9.097692 3.046888 -0.886815
						CHANNELS 3 Zrotation Yrotation Xrotation
						JOINT LeftForeArm
						{
							OFFSET 25.961220 -1.277207 -2.745643
							CHANNELS 3 Zrotation Yrotation Xrotation
							JOINT LeftHand
							{
								OFFSET 24.923361 0.898606 -0.117091
								CHANNELS 3 Zrotation Yrotation Xrotation
								End Site
								{
									OFFSET 0.000000 0.000000 0.000000
								}
							}
						}
					}
				}
				JOINT RightShoulder
				{
					OFFSET -8.175920 11.883285 -3.861528
					CHANNELS 3 Zrotation Yrotation Xrotation
					JOINT RightArm
					{
						OFFSET -9.601238 3.255117 -0.914307
						CHANNELS 3 Zrotation Yrotation Xrotation
						JOINT RightForeArm
						{
							OFFSET -25.374195 -1.332924 -2.140099
							CHANNELS 3 Zrotation Yrotation Xrotation
							JOINT RightHand
							{
								OFFSET -25.529810 0.777228 -0.555919
								CHANNELS 3 Zrotation Yrotation Xrotation
								End Site
								{
									OFFSET 0.000000 0.000000 0.000000
								}
							}
						}
					}
				}
			}
		}
	}
}
MOTION
Frames: 18
Frame Time: 0.033333
22.601334 61.620800 89.652397 -75.068612 -0.543237 82.660646 15.901796 7.697302 0.300509 0.687508 10.124626 25.089384 1.585394 17.875964 -19.253039 nan nan nan -15.993886 -6.711303 -11.934272 1.785511 -8.626800 31.399403 3.499235 -5.470359 -16.572499 nan nan nan -2.655805 -0.902109 4.330526 4.064184 -6.331030 9.980737 0.861914 -0.615775 -7.972238 3.124757 -10.981837 10.045911 5.874943 -13.553800 3.406442 3.443969 -20.445616 -7.580177 -50.081118 -47.455826 21.984332 141.301369 -67.046965 -118.139001 3.141508 -15.539167 -16.278633 -3.584207 24.631653 -5.083154 41.063879 24.871696 22.272116 135.262664 81.925468 145.798016 8.122809 10.459602 -35.269136 
22.423592 61.879822 89.622490 -74.933633 -0.690608 82.768129 15.791019 7.608878 0.409893 0.827360 10.047760 24.661389 1.630195 17.962439 -19.003974 nan nan nan -16.030111 -6.913640 -11.904563 1.807611 -8.821499 31.416712 3.182197 -5.308465 -17.038406 nan nan nan -2.524537 -1.131960 4.064662 3.930409 -6.630595 10.498419 0.679865 -0.405798 -8.365174 3.184977 -11.008405 10.325708 5.929070 -13.395733 3.527916 3.460220 -20.414853 -7.713552 -49.873570 -47.284959 22.104913 141.464691 -67.430916 -117.805704 3.792246 -15.444602 -16.954317 -3.725015 24.810945 -5.215345 41.404556 24.764592 22.872526 136.520799 81.641074 146.815251 7.851271 10.845872 -36.294576 
22.219316 62.158951 89.597404 -74.788782 -0.654154 83.001995 16.015404 7.566385 0.412439 0.947960 10.353601 24.368955 1.292658 17.651859 -19.026464 nan nan nan -15.874960 -7.110960 -11.768086 1.769292 -9.330055 31.104253 2.699995 -4.845166 -17.283234 nan nan nan -2.557096 -0.908269 3.793685 4.152298 -6.481652 10.071323 0.987636 -0.582884 -7.985229 3.328485 -11.112271 10.695871 5.783523 -13.606510 3.222933 2.730058 -20.400609 -7.395357 -53.352403 -47.691965 23.377571 140.686689 -68.295492 -118.227329 1.534237 -16.707243 -15.063125 -4.039186 24.518359 -5.373199 41.215546 24.384898 22.443483 135.030937 80.508386 144.607551 8.969485 11.866924 -35.768607 
22.054050 62.444763 89.520988 -74.716247 -0.779896 83.234590 16.158091 7.737843 0.392678 1.004176 10.634346 24.097849 1.156390 17.232919 -18.919758 nan nan nan -15.893894 -7.418059 -11.793025 1.838269 -9.528890 30.983241 2.497900 -4.606211 -17.596823 nan nan nan -2.487775 -1.032510 3.442537 4.083627 -6.761807 10.683099 0.872960 -0.425174 -8.528030 3.731288 -10.874196 10.652443 5.591987 -13.819411 3.326135 3.042524 -19.946672 -7.426484 -54.206047 -47.819958 24.840763 139.666393 -67.780215 -119.395264 0.406171 -16.035765 -12.557189 -4.165684 24.225785 -5.361088 41.402499 24.808130 22.728368 133.759077 80.054702 142.518887 9.061796 11.788588 -34.927026 
21.866535 62.726570 89.459099 -74.635763 -0.770852 83.447097 16.523043 8.073538 0.466945 0.820856 10.536400 23.648857 0.987015 16.974006 -18.777528 nan nan nan -15.778846 -7.765776 -11.797946 2.070080 -9.512158 30.861928 2.354179 -4.602032 -17.883022 nan nan nan -2.528509 -0.887885 3.208770 4.281343 -6.674639 10.516766 1.048072 -0.577301 -8.408380 3.733811 -11.216230 10.694638 5.464814 -13.752280 3.392792 2.727686 -20.018773 -7.382246 -54.501027 -48.049239 25.228485 139.666668 -68.222849 -119.784996 0.485604 -15.731469 -12.121913 -4.353722 23.870591 -5.714740 41.391862 24.797935 22.806777 131.268259 79.535198 139.782662 8.773422 11.226099 -35.175652 
21.659712 63.006294 89.407791 -74.569854 -0.797980 83.578010 16.889299 8.354421 0.716490 0.579040 10.526439 23.070540 0.800029 16.603689 -18.626947 nan nan nan -15.670801 -7.951267 -11.787196 2.228451 -9.444468 30.844230 2.363652 -4.570007 -18.161732 nan nan nan -2.608654 -0.709731 3.117709 4.478934 -6.522501 10.243653 1.274287 -0.845055 -8.268226 3.710000 -11.428043 10.640640 5.319976 -13.778862 3.573383 2.613918 -20.159061 -7.340881 -54.769781 -48.162303 25.346884 139.729578 -68.585022 -120.035578 0.427189 -15.988046 -11.726818 -4.501625 23.726356 -5.946289 41.117607 24.607700 22.820545 130.910296 78.684223 139.098355 9.100063 12.286868 -35.347051 
21.477100 63.276325 89.357262 -74.517773 -0.892945 83.719338 17.187083 8.548192 0.945904 0.243976 10.546184 22.525587 0.707209 16.300780 -18.399935 nan nan nan -15.613823 -8.043674 -11.967114 2.328382 -9.318495 31.079905 2.260609 -4.733105 -18.348354 nan nan nan -2.674884 -0.599305 3.041166 4.617728 -6.400863 10.113966 1.385323 -1.152951 -8.212169 3.809338 -11.496036 10.285269 5.150521 -13.797824 3.955397 2.818697 -20.204483 -7.313704 -54.995609 -48.237238 25.461036 139.982836 -68.647576 -120.258640 0.621996 -16.135932 -11.761440 -4.557447 23.644750 -5.891368 40.896092 24.777026 22.950357 131.360167 78.069684 139.360495 8.832789 12.478041 -35.522144 
21.300970 63.526264 89.310944 -74.431192 -1.003444 83.814373 17.439974 8.719272 1.174920 -0.157621 10.304921 22.048129 0.671604 16.167766 -18.204767 nan nan nan -15.608087 -8.076352 -12.197096 2.408254 -9.241782 31.527878 2.090619 -4.901839 -18.487141 nan nan nan -2.811721 -0.579910 2.822543 4.749120 -6.388950 10.332762 1.472721 -1.308701 -8.265042 3.888245 -11.523966 10.113998 5.087318 -13.864431 4.131640 2.953159 -20.337410 -7.298832 -55.015099 -48.293859 25.541240 140.149431 -68.641738 -120.601453 0.754160 -16.053694 -11.779744 -4.583370 23.692603 -5.811935 40.733800 24.850726 23.079628 131.676123 77.700933 139.540390 8.322596 12.070916 -35.756722 
21.125483 63.771198 89.271729 -74.327433 -1.111912 83.828015 17.669879 8.965883 1.448284 -0.506547 9.990938 21.548964 0.681617 16.113193 -17.948416 nan nan nan -15.573866 -8.132878 -12.405398 2.440227 -9.163740 32.084268 2.085231 -5.035473 -18.738004 nan nan nan -3.018222 -0.624774 2.680688 4.874368 -6.427873 10.493116 1.609933 -1.402160 -8.222156 3.926183 -11.547423 10.086934 5.029157 -13.895937 4.171186 3.088426 -20.491807 -7.322258 -54.886123 -48.286894 25.407821 140.499565 -68.634488 -121.188317 0.659705 -15.772355 -11.766636 -4.646006 23.766359 -5.821389 40.694034 24.868250 23.106005 130.864786 77.535782 138.900900 8.192761 11.742783 -35.633782 
20.965137 64.008270 89.243690 -74.276517 -1.231647 83.791689 17.875410 9.301449 1.727529 -0.695840 9.995983 21.107039 0.693868 15.952529 -17.587899 nan nan nan -15.534064 -8.165466 -12.595023 2.425979 -9.147999 32.592049 2.161604 -5.128741 -19.011459 nan nan nan -3.236490 -0.668736 2.845621 4.999135 -6.361769 10.277722 1.767715 -1.536312 -8.106340 4.020935 -11.484684 9.975826 4.864135 -13.995512 4.320406 3.230779 -20.599620 -7.422546 -54.890866 -48.272631 25.372237 140.566381 -68.647043 -121.229762 0.394674 -15.807304 -11.937178 -4.671425 23.771777 -5.900265 40.796942 24.918727 23.231467 129.758231 77.511740 138.310693 8.517479 11.325918 -35.382388 
20.797245 64.219193 89.223541 -74.220314 -1.374984 83.730219 18.017501 9.415785 2.088070 -0.812935 10.230784 20.638238 0.622395 15.610583 -17.283721 nan nan nan -15.582929 -8.070605 -12.642937 2.281168 -9.466763 32.955985 2.194214 -4.933560 -19.235433 nan nan nan -3.409675 -0.711638 3.018687 5.062918 -6.347032 10.197430 1.911952 -1.637815 -8.198864 4.064096 -11.266868 10.041375 4.814990 -14.198508 4.363853 3.325555 -20.653843 -7.513252 -55.202512 -48.234085 25.469151 140.025014 -68.732419 -120.902946 -0.545046 -16.411455 -11.289294 -4.485801 24.041215 -5.896220 40.445866 24.669738 23.291176 130.289635 77.013920 138.566253 11.236708 13.192386 -34.933469 
20.642630 64.420990 89.195145 -74.176379 -1.505537 83.743159 18.131234 9.674446 2.317555 -1.048108 9.883949 20.242062 0.586215 15.642994 -17.041329 nan nan nan -15.576454 -8.004550 -12.802902 2.304170 -9.439301 33.338114 2.165209 -5.172503 -19.495591 nan nan nan -3.483570 -0.834886 3.061749 5.117517 -6.354318 10.111859 1.859120 -1.634011 -8.207031 4.055561 -11.286786 10.095189 4.793041 -14.185803 4.396413 3.355688 -20.739247 -7.279990 -54.679389 -48.386475 25.250314 140.511532 -68.955154 -121.190712 0.995976 -15.977084 -12.146575 -4.498754 24.045009 -5.773249 40.958117 24.903807 23.561807 129.315733 77.395191 138.110272 7.460237 10.969317 -35.488618 
20.506702 64.628906 89.177452 -74.135083 -1.653808 83.743701 18.222042 9.795020 2.576686 -1.217038 9.857691 19.819201 0.571930 15.520668 -16.832539 nan nan nan -15.603044 -7.959166 -12.919555 2.271536 -9.485671 33.694947 2.130899 -5.214739 -19.766320 nan nan nan -3.562455 -0.979139 3.121872 5.109989 -6.384214 10.009776 1.869308 -1.630285 -8.136182 4.052520 -11.213286 10.175802 4.751646 -14.185518 4.262338 3.485788 -20.726221 -7.297080 -54.589400 -48.360146 25.194277 140.666508 -68.932296 -121.299270 1.013903 -15.808664 -12.337945 -4.491711 24.158894 -5.751680 41.266703 24.833364 23.827408 129.380052 77.376116 138.324856 7.612419 10.936512 -35.880301 
20.365772 64.839859 89.167915 -74.175226 -1.792609 83.673074 18.347918 9.957919 3.004908 -1.374440 9.885818 19.292384 0.552974 15.341579 -16.598720 nan nan nan -15.568901 -7.896985 -12.956637 2.187475 -9.467595 33.998470 2.118096 -5.202201 -20.080286 nan nan nan -3.648289 -1.143996 3.205304 5.075462 -6.440789 10.062562 1.879035 -1.534431 -8.186928 4.070588 -11.018443 10.382826 4.728431 -14.225529 4.103359 3.621051 -20.751604 -7.353324 -54.483073 -48.273235 25.113375 140.514105 -68.859015 -121.143333 0.949011 -15.630292 -12.435534 -4.413069 24.391375 -5.648186 41.475182 24.732651 24.033803 129.591198 77.387628 138.717390 7.744373 11.044357 -36.076714 
20.226673 65.046272 89.127029 -74.213481 -1.879338 83.601328 18.524048 10.086338 3.429909 -1.527926 9.876313 18.716003 0.486995 15.196529 -16.268797 nan nan nan -15.452065 -7.789811 -13.006933 2.031264 -9.455002 34.305624 2.112254 -5.209073 -20.406171 nan nan nan -3.682696 -1.326272 3.309624 4.999015 -6.532045 10.103732 1.853506 -1.335480 -8.233898 4.184121 -10.779731 10.511089 4.808191 -14.373002 4.030764 3.802039 -20.793672 -7.465039 -54.426320 -48.278079 25.096469 140.069223 -68.918476 -120.792648 1.031121 -15.305240 -12.406736 -4.235307 24.653181 -5.576300 41.561832 24.623889 24.245529 130.029306 77.393788 139.170572 7.722565 11.090174 -36.092468 
20.099583 65.231758 89.074944 -74.174412 -1.972493 83.596763 18.621425 10.145623 3.695827 -1.620014 9.912342 18.239856 0.435088 15.063242 -16.006876 nan nan nan -15.414544 -7.642990 -13.107707 1.881163 -9.604913 34.668161 2.069872 -5.224342 -20.707760 nan nan nan -3.677768 -1.520695 3.347976 4.929562 -6.613037 10.128007 1.788177 -1.255446 -8.234925 4.304277 -10.498715 10.512190 4.856182 -14.546706 3.957961 4.044625 -20.674290 -7.569585 -54.588331 -48.379858 25.135785 139.557882 -68.949809 -120.308603 0.658533 -15.285323 -12.062301 -4.110460 24.845777 -5.561953 41.819200 24.571824 24.622026 130.553610 77.478813 139.733709 8.256577 11.584344 -35.946414 
19.988092 65.413124 89.028992 -74.086334 -2.037213 83.603811 18.715026 10.357744 3.820339 -1.619978 9.896123 17.908583 0.325937 14.884673 -15.784272 nan nan nan -15.356432 -7.553723 -13.218675 1.783159 -9.700196 35.055393 2.006612 -5.269729 -21.019055 nan nan nan -3.645957 -1.732692 3.394998 4.907879 -6.691091 10.155023 1.750931 -1.238400 -8.220314 4.355458 -10.220680 10.570453 4.841097 -14.652015 3.719543 4.194911 -20.602174 -7.640791 -54.522612 -48.430924 24.997686 139.365597 -68.948052 -119.866872 0.772779 -15.303690 -11.950878 -4.123099 24.980848 -5.525886 42.223818 24.605969 24.918968 130.520761 77.673973 140.021802 7.566017 11.448652 -36.072343 
19.861364 65.604126 88.989639 -74.022074 -2.029920 83.589054 18.858223 10.575145 3.966225 -1.536738 9.782939 17.611172 0.264053 14.772910 -15.551855 nan nan nan -15.209847 -7.576034 -13.296369 1.771650 -9.634207 35.393246 1.932369 -5.360253 -21.301104 nan nan nan -3.582474 -1.884813 3.547976 4.909739 -6.704987 9.947634 1.775188 -1.237293 -8.109199 4.387499 -10.141495 10.466199 4.653652 -14.676255 3.763030 4.243581 -20.613589 -7.666869 -54.450072 -48.427772 24.834214 139.491766 -69.060153 -119.751342 1.415554 -15.115975 -11.768479 -4.124854 24.966176 -5.381986 42.485559 24.722981 24.902201 129.995088 77.607865 139.681193 6.811781 10.728603 -36.053497 
